<svg xmlns="http://www.w3.org/2000/svg" width="256" height="256"><path fill="#1976D2" fill-opacity=".016" fill-rule="evenodd" d="M0 128.004v128.004l128.25-.254 128.25-.254.254-127.75L257.008 0H0v128.004m.485.496c0 70.4.119 99.053.265 63.672.146-35.38.146-92.98 0-128C.604 29.153.485 58.1.485 128.5"/><path fill="#1976D2" fill-opacity=".239" fill-rule="evenodd" d="M113.5 59.482c-14.016 3.091-28.358 11.061-36.68 20.385l-4.268 4.781-5.526-3.267c-12.03-7.113-30.355-11.032-44.28-9.47C12.461 73.064 0 76.859 0 78.838c0 2.817 7.718 14.594 13.151 20.066 3.218 3.241 7.939 6.617 11.849 8.474 12.221 5.802 28.232 3.841 40.25-4.931 2.612-1.906 4.736-3.8 4.719-4.207-.018-.407-1.143-1.549-2.501-2.537-2.428-1.767-2.547-1.745-6.958 1.29-6.419 4.416-12.003 6.16-20.01 6.249-8.332.092-14.167-2.139-20.457-7.822C15.765 91.555 10 83.944 10 82.161c0-1.786 13.438-3.456 23.633-2.938 23.03 1.17 43.033 13.331 54.693 33.251 6.313 10.784 9.094 21.322 9.11 34.526.016 11.828-1.415 17.87-7.165 30.268-4.162 8.973-4.463 8.316 6.229 13.621 19.524 9.687 43.67 9.597 63.193-.235 9.803-4.936 10.042-5.377 6.42-11.822-1.649-2.933-4.148-9.32-5.555-14.194-10.439-36.166 12.64-75.403 49.457-84.08 9.908-2.335 26.801-1.873 34.77.951 3.002 1.063-7.02 13.791-14.134 17.949-10.366 6.06-26.139 4.747-36.328-3.025-3.136-2.392-3.397-2.431-5.803-.854-3.601 2.359-3.156 3.806 2.23 7.252 9.504 6.082 13.968 7.476 24.25 7.571 8.329.077 10.209-.244 15.253-2.603 7.583-3.547 15.957-11.608 21.073-20.284 2.275-3.858 4.482-7.165 4.905-7.348.423-.184.733-1.309.69-2.5-.043-1.192-.278-1.687-.522-1.101-.289.695-2.79.28-7.174-1.191-9.576-3.212-22.149-4.589-31.299-3.429-9.9 1.255-22.1 5.185-29.003 9.342l-5.577 3.358-5.682-5.731C160.858 61.96 136.169 54.483 113.5 59.482m3.575 6.605c-5.76 1.13-13.669 3.733-18.101 5.956-5.357 2.688-15.677 10.732-18.059 14.076l-2.117 2.974 4.898 5.203c8.918 9.473 14.46 19.001 18.457 31.729 2.009 6.399 2.344 9.526 2.327 21.725l-.02 14.25H152.223l-.703-3.746c-.387-2.06-.684-7.629-.662-12.377.093-19.482 7.342-37.166 20.985-51.192l5.657-5.815-6.662-6.343c-14.143-13.465-35.553-20.012-53.763-16.44M.158 79c0 1.375.227 1.938.504 1.25.278-.687.278-1.812 0-2.5-.277-.687-.504-.125-.504 1.25m98.852 96.638c-1.656 3.651-3.01 6.74-3.01 6.864 0 .124 2.771 1.468 6.158 2.988 16.61 7.454 35.029 7.398 51.994-.158l5.652-2.517-2.278-5.158c-1.253-2.836-2.544-5.944-2.87-6.907-.545-1.607-2.725-1.75-26.615-1.75H102.02l-3.01 6.638"/><path fill="#1976D2" fill-opacity=".309" fill-rule="evenodd" d="M120.5 58.607c-16.073 2.214-29.081 8.311-40.285 18.88l-7.595 7.165-8.56-4.32C53.534 75.02 43.163 72.361 32 72.112 18.482 71.811.351 76.025.643 79.4c.245 2.823 6.618 12.655 12.029 18.558 9.242 10.08 22.153 14.356 35.158 11.645 7.504-1.565 11.144-3.156 18.084-7.904l4.414-3.02-2.788-2.398c-2.737-2.355-2.825-2.364-4.914-.524-9.618 8.475-24.549 10.451-36.135 4.782-5.375-2.629-12.344-9.428-15.799-15.413l-1.808-3.131 2.507-.954c1.38-.524 6.315-1.46 10.969-2.079 24.732-3.291 50.504 8.998 64.815 30.907 12.87 19.704 14.319 45.787 3.714 66.825l-3.935 7.806 2.263 1.855c6.745 5.528 21.377 10.429 33.716 11.293 14.679 1.028 29.193-2.448 41.304-9.892l4.737-2.911-2.848-5.173c-10.474-19.02-11.226-41.521-2.055-61.427 6.832-14.828 17.008-25.325 31.695-32.696 9.31-4.672 18.744-6.855 29.734-6.881 10.219-.023 20.5 1.846 20.5 3.727 0 1.93-6.402 10.489-10.149 13.568-7.001 5.754-11.73 7.501-20.351 7.52-8.773.019-13.812-1.537-21.005-6.487l-4.228-2.909-2.207 2.35-2.207 2.349 3.365 2.567c5.042 3.846 13.915 7.61 20.461 8.681 16.078 2.631 32.119-6.24 41.321-22.853 1.925-3.475 4.063-6.931 4.75-7.678 1.444-1.572 1.67-2.88.356-2.069-.491.304-2.436-.092-4.321-.879-7.805-3.262-16.169-4.483-28.285-4.13-13.81.402-21.695 2.446-33.249 8.619l-7.249 3.872-4.673-4.995c-8.254-8.825-20.972-16.25-33.127-19.341-6.12-1.557-19.796-2.649-24.702-1.973m-8.694 8.254c-11.167 3.121-22.055 9.6-30.125 17.925l-3.819 3.939 5.062 5.197c9.215 9.46 15.609 20.71 19.189 33.757 1.652 6.021 2.109 10.381 2.026 19.299-.059 6.337-.227 12.422-.373 13.522-.259 1.946.389 2.007 24.017 2.268l24.282.268-.664-10.274c-1.439-22.267 5.737-42.455 20.727-58.304 5.902-6.24 5.802-6.818-2.367-13.746-6.356-5.391-14.324-9.959-22.322-12.797-8.648-3.068-26.535-3.598-35.633-1.054M99.236 174.25a1068.79 1068.79 0 0 1-2.75 7.012c-.579 1.437.464 2.292 5.652 4.636 16.156 7.299 36.14 7.153 52.612-.385 2.887-1.321 5.25-2.59 5.25-2.819 0-.23-1.354-3.405-3.01-7.056L153.98 169h-52.702l-2.042 5.25"/><path fill="#1976D2" fill-opacity=".181" fill-rule="evenodd" d="M117 59.492c-15.149 2.6-29.779 10.219-39.429 20.536l-4.773 5.102-9.149-4.568c-19.157-9.564-37.411-10.975-57.412-4.438l-6.263 2.048 3.022 5.664c7.088 13.285 16.239 21.723 26.928 24.83 11.085 3.223 26.014.195 35.784-7.257 3.864-2.947 3.989-3.493 1.195-5.237-1.833-1.145-2.571-.981-5.872 1.307-6.008 4.163-13.37 6.521-20.364 6.521-9.881 0-15.147-2.303-22.675-9.917-6.291-6.363-9.891-11.518-8.803-12.606.289-.289 3.852-1.234 7.918-2.1 23.824-5.077 51.482 5.245 66.561 24.841 16.23 21.092 19.089 49.288 7.392 72.902l-3.922 7.918 5.181 2.983c21.122 12.158 46.084 12.873 67.461 1.932 8.845-4.526 8.86-4.568 4.702-12.853-19.595-39.044 2.558-86.313 45.458-96.998 4.652-1.158 11.61-2.094 15.5-2.085 6.386.016 20.132 2.221 21.333 3.423.876.876-5.832 10.381-9.954 14.104-11.612 10.491-28.326 11.394-41.619 2.249-4.092-2.815-4.418-2.88-6.75-1.352-1.347.883-2.45 1.83-2.45 2.104s2.687 2.235 5.971 4.358c16.215 10.48 35.938 9.182 48.904-3.219 5.1-4.878 13.008-16.545 13.373-19.729.201-1.751-.565-2.495-3.748-3.644C244.35 74.091 232.464 72 226 72c-11.679 0-28.064 4.407-37.133 9.987-2.693 1.657-5.159 3.013-5.48 3.013-.321 0-3.428-2.812-6.904-6.25-10.887-10.765-23.563-17.068-38.983-19.384-10.449-1.569-10.626-1.568-20.5.126m2.5 5.463c-11.806 1.886-19.542 5.124-30.074 12.59-3.341 2.368-7.314 5.931-8.83 7.918l-2.755 3.612 6.017 6.432c7.415 7.927 13.154 17.485 16.809 27.993 2.58 7.421 2.784 9.142 2.807 23.767l.026 15.767 24.5-.267c23.846-.26 24.493-.32 24.234-2.267-.146-1.1-.314-7.185-.373-13.522-.125-13.376 1.978-22.737 7.629-33.958 3.69-7.327 10.701-16.724 15.877-21.277l3.133-2.757-6.577-6.321c-3.618-3.476-9.018-7.715-12-9.419-11.83-6.76-28.545-10.188-40.423-8.291m-17.363 103.939c-.75.475-2.638 3.883-4.194 7.573l-2.831 6.709 6.283 2.849c9.11 4.131 21.309 6.371 30.733 5.645 8.167-.63 21.85-4.625 25.628-7.482l2.257-1.706-2.635-6.642c-2.28-5.744-3.04-6.722-5.632-7.241-4.663-.932-48.079-.674-49.609.295"/></svg>